PathFileType	4	(X/Y/Z)	s01c0301.trc
DataRate	CameraRate	NumFrames	NumMarkers	Units	OrigDataRate	OrigDataStartFrame	OrigNumFrames
200	200	6	48	mm	200	1750	2000
Frame#	Time	racr			lacr			c7			jug			rlel			rdr			llel			ldr			s2			lic			ric			lasi			rasi			rpsi			lpsi			rgt			lgt			rth1			rth2			rth3			rth4			rlfc			rsh1			rsh2			rsh3			rsh4			rlmal			rmmal			rcal			rtoe			rmt5			lth1			lth2			lth4			lth3			llfc			lsh1			lsh2			lsh3			lsh4			llmal			lmmal			lcal			ltoe			lmt5			SBIKE			LBIKE			RBIKE			
		X1	Y1	Z1	X2	Y2	Z2	X3	Y3	Z3	X4	Y4	Z4	X5	Y5	Z5	X6	Y6	Z6	X7	Y7	Z7	X8	Y8	Z8	X9	Y9	Z9	X10	Y10	Z10	X11	Y11	Z11	X12	Y12	Z12	X13	Y13	Z13	X14	Y14	Z14	X15	Y15	Z15	X16	Y16	Z16	X17	Y17	Z17	X18	Y18	Z18	X19	Y19	Z19	X20	Y20	Z20	X21	Y21	Z21	X22	Y22	Z22	X23	Y23	Z23	X24	Y24	Z24	X25	Y25	Z25	X26	Y26	Z26	X27	Y27	Z27	X28	Y28	Z28	X29	Y29	Z29	X30	Y30	Z30	X31	Y31	Z31	X32	Y32	Z32	X33	Y33	Z33	X34	Y34	Z34	X35	Y35	Z35	X36	Y36	Z36	X37	Y37	Z37	X38	Y38	Z38	X39	Y39	Z39	X40	Y40	Z40	X41	Y41	Z41	X42	Y42	Z42	X43	Y43	Z43	X44	Y44	Z44	X45	Y45	Z45	X46	Y46	Z46	X47	Y47	Z47	X48	Y48	Z48	
1750	8.7500	697.843825	1382.457490	-117.960778	723.092316	1344.999799	-457.644682	681.872303	1441.081437	-286.487195	677.511788	1275.473471	-282.530195	661.204778	1096.973305	-29.459432	734.121364	848.577062	-88.561560	627.210640	1073.982199	-549.573178	734.814711	845.716663	-427.040826	158.049473	1203.053563	-249.905139	308.644063	1202.056732	-440.479454	340.325504	1194.597497	-123.362128	300.703916	1144.119066	-420.164034	358.706870	1146.151917	-158.824500	198.026177	1237.021276	-203.469305	179.694866	1240.654403	-309.387958	294.156585	1096.195967	-79.099976	205.183229	1060.143549	-451.821885	395.740912	1017.091576	-79.238153	469.835308	980.754931	-90.742458	545.783619	934.923661	-110.509110	492.233693	1026.585084	-115.160118	604.240874	848.992567	-141.695442	506.995644	795.539837	-102.146541	437.855010	747.222342	-99.108421	359.777664	703.919637	-101.559562	461.422917	705.799985	-135.338171	248.527835	646.670243	-109.045658	278.566873	623.251009	-190.071780	195.709646	662.745179	-161.712537	334.607268	429.065429	-145.676116	253.694182	500.753187	-77.102344	216.671674	930.455599	-458.325780	253.531497	849.129431	-458.603738	303.528473	870.704886	-465.809294	283.274681	770.664915	-442.205396	311.897549	657.674884	-428.591812	248.201298	562.342176	-456.152033	225.329231	478.630354	-448.245410	201.327804	397.294960	-432.413444	282.165024	465.831480	-427.279417	165.814635	277.059836	-412.354110	235.755115	164.875592	-348.323821	116.812020	264.120890	-369.513491	362.483626	136.024031	-380.950366	256.257738	156.745004	-444.870498	-228.361158	890.981073	-253.477478	-21.193163	80.449711	-454.288093	-21.188225	80.581942	-53.942292	
1751	8.7550	697.768311	1382.869184	-118.652353	722.885423	1345.489213	-457.472682	681.450264	1441.431709	-286.792479	677.083352	1275.869700	-283.036455	661.840804	1097.322206	-30.117411	734.139176	848.578753	-88.628239	627.681112	1074.294075	-549.224937	734.858206	845.652144	-426.963599	157.654891	1203.153482	-250.649376	307.975078	1201.549674	-439.920317	339.982547	1194.795103	-123.831174	300.424685	1144.045670	-420.180375	358.233283	1145.967359	-159.004417	197.677621	1237.270408	-203.600189	179.229916	1240.787174	-309.586656	293.814759	1095.983634	-79.520041	204.797339	1060.180064	-452.040361	394.864243	1016.057983	-79.072347	468.623113	979.171916	-90.646118	544.212288	932.634878	-110.362933	491.389203	1024.771860	-115.055578	601.764918	846.375020	-141.260882	503.976876	793.641106	-102.080524	434.647688	745.633968	-99.062627	356.479312	702.467587	-101.626749	458.361204	703.905429	-135.036421	245.310933	645.693121	-109.325199	275.536247	621.711751	-190.319154	192.930571	662.455134	-162.276529	329.170448	427.281048	-145.415779	248.911633	500.015548	-77.124841	216.779739	930.596126	-458.666392	253.771222	849.316268	-458.803629	303.688288	871.059533	-466.064881	283.713152	771.005472	-442.233395	312.787436	657.741606	-428.448172	249.256661	562.083920	-455.940103	226.876863	478.299257	-447.874334	203.305665	396.947651	-431.855328	283.835398	465.893712	-427.090920	168.570385	276.489572	-411.575123	233.497265	164.146001	-348.235472	119.991701	262.812434	-368.430424	367.127604	137.847271	-381.468698	260.325252	157.252759	-444.802159	-228.362996	890.983268	-253.510108	-21.206374	80.436935	-454.272349	-21.172749	80.573915	-53.935110	
1752	8.7600	697.611438	1383.108277	-119.278566	722.615021	1345.955443	-457.325577	680.922603	1441.770011	-287.137353	676.747452	1276.302684	-283.321254	662.402116	1097.562323	-30.816205	734.155374	848.491493	-88.671466	628.175125	1074.563330	-548.943440	734.905255	845.592512	-426.924829	157.223927	1203.447783	-250.158265	307.866855	1200.874698	-439.821857	339.574770	1194.960080	-124.200378	300.227647	1143.998390	-420.236241	357.665829	1145.677469	-159.195825	197.187129	1237.477976	-203.750522	178.716797	1240.824543	-309.844006	293.332648	1095.654305	-79.919698	204.674096	1060.144692	-452.348207	393.945883	1014.931556	-78.893444	467.379759	977.434183	-90.555600	542.532962	930.327751	-110.174880	490.498954	1022.860805	-114.911372	599.065991	843.543228	-140.309486	501.028579	791.362513	-101.934635	431.446116	743.626289	-98.964279	353.219019	700.557341	-101.649227	455.184587	701.703527	-134.764206	242.142182	644.546795	-109.489760	273.008457	620.346332	-190.701408	190.167888	662.036382	-162.586251	323.690664	425.400661	-145.511313	244.471682	499.186380	-77.138392	217.206121	930.674052	-459.101898	254.395588	849.503164	-459.107282	304.349208	871.392779	-466.233904	284.565725	771.289668	-442.322275	313.932486	657.884865	-428.233456	250.380613	562.011643	-455.714686	228.445061	478.077957	-447.503827	205.358840	396.677196	-431.425598	285.530696	465.993592	-426.819340	171.233280	275.928270	-410.590026	231.248904	163.519805	-348.142247	122.953424	261.785022	-367.336783	371.453379	139.648804	-381.915093	264.041687	157.889793	-444.725000	-228.370474	890.969460	-253.530980	-21.220043	80.427588	-454.278058	-21.198180	80.587159	-53.939197	
1753	8.7650	697.424300	1383.302088	-119.774569	722.343693	1346.424317	-457.169991	680.403879	1442.128015	-287.451214	676.413912	1276.851820	-283.638241	662.868181	1097.815269	-31.500883	734.171087	848.422750	-88.705616	628.642519	1074.855030	-548.728341	734.929083	845.587001	-426.926788	156.743037	1203.441485	-250.632237	307.734478	1199.939570	-439.751528	339.098130	1195.028927	-124.498305	300.021930	1143.952030	-420.324143	357.031410	1145.276787	-159.291543	196.669296	1237.562496	-203.952650	178.233366	1240.810982	-310.065338	292.769625	1095.234752	-80.243251	204.809415	1060.077063	-452.711038	392.899430	1013.691968	-78.669496	466.009894	975.625906	-90.366576	540.828705	927.921443	-110.032134	489.513121	1020.846207	-114.750587	596.721454	840.715261	-140.059605	497.958552	788.893768	-101.649098	428.357711	741.310766	-98.753929	350.015299	698.294892	-101.636125	452.009956	699.340756	-134.619492	238.167124	644.376955	-107.894540	269.762906	618.628760	-190.874355	187.203711	661.436082	-162.976780	319.150725	424.049013	-145.232220	240.320011	498.406304	-77.127124	217.953708	930.682953	-459.627535	255.470005	849.648177	-459.535382	305.453429	871.681689	-466.308347	285.809847	771.529445	-442.545590	315.226940	658.026658	-428.018896	251.618713	562.032498	-455.496496	230.003210	478.039480	-447.163197	207.252325	396.554325	-430.879206	287.207221	466.166754	-426.550023	173.660266	275.654288	-409.576162	229.010897	162.994406	-348.044382	125.755567	260.858716	-366.281968	375.365401	141.309094	-382.222988	267.561601	158.609263	-444.515837	-228.385136	890.961201	-253.552476	-21.220546	80.399042	-454.247009	-21.190325	80.554170	-53.929396	
1754	8.7700	696.849866	1383.427784	-120.568490	722.056728	1346.781182	-457.034858	679.855098	1442.433234	-287.705602	675.945021	1277.260520	-284.077678	663.270423	1098.006983	-32.180549	734.164070	848.352759	-88.716840	629.033651	1075.030508	-548.618106	734.974210	845.545932	-426.880615	156.236134	1203.296559	-251.360542	307.531973	1199.237051	-439.687247	338.453789	1194.913932	-124.835541	299.865669	1143.903655	-420.405522	356.395300	1144.942989	-159.453042	196.129457	1237.578577	-204.150343	177.721080	1240.759145	-310.319881	292.091187	1094.732897	-80.569489	205.178168	1059.966576	-453.126868	391.790542	1012.290744	-78.498876	464.551788	973.652247	-90.188019	539.030261	925.513996	-109.790049	488.200291	1018.896175	-113.638936	594.544733	837.933211	-139.963113	494.924749	786.189173	-101.177009	425.239852	738.649468	-98.441253	346.821921	695.761286	-101.497562	448.820739	696.878786	-134.541167	234.844581	642.925988	-109.057857	266.345151	617.039308	-190.968725	184.062092	660.748054	-163.233599	315.353598	422.996795	-145.031753	236.520421	497.655825	-77.109932	219.008254	930.656398	-460.191404	256.804825	849.844006	-459.862571	306.728024	872.011046	-466.281202	287.474134	771.732525	-442.809460	316.712313	658.226432	-427.746340	252.959081	562.179391	-455.220035	231.631009	478.094346	-446.749251	209.100349	396.640914	-430.321166	288.879145	466.439658	-426.260246	175.920503	275.507073	-408.827962	226.784154	162.567238	-347.942148	128.339999	260.208380	-365.673927	378.774625	142.884124	-382.300409	270.803971	159.343078	-444.478120	-228.375136	890.926924	-253.536940	-21.245731	80.369757	-454.250556	-21.197793	80.546963	-53.925032	
1755	8.7750	696.466213	1383.674584	-121.050465	721.746620	1347.135862	-456.963092	679.254075	1442.693437	-287.983016	675.523059	1277.557805	-284.435731	663.608556	1098.190167	-32.845636	734.175978	848.271657	-88.721866	629.385779	1075.221936	-548.576887	734.976669	845.572002	-426.925081	155.046301	1204.161543	-246.647049	307.274878	1198.471847	-439.603683	337.825021	1194.723478	-125.071177	299.751041	1143.897253	-420.527857	355.692807	1144.459255	-159.566419	195.417397	1237.522649	-204.385537	177.104278	1240.650362	-310.593739	291.295918	1094.141303	-80.832893	205.709566	1059.798825	-453.595955	390.599765	1010.975321	-78.316891	463.082528	971.750102	-89.959756	537.200252	923.056917	-109.529646	487.092860	1016.855268	-113.323033	592.141695	835.070436	-139.449664	491.971175	783.237549	-100.616217	422.189960	735.772813	-98.092291	343.765938	693.002190	-101.245189	445.577453	694.333096	-134.570890	231.404893	642.082855	-107.807380	262.739614	615.704061	-191.050837	180.723920	659.996170	-163.291008	312.018940	422.305607	-144.872588	233.179556	497.023590	-76.996930	220.407730	930.563924	-460.748907	258.426991	849.807399	-460.320915	308.479685	872.298814	-466.256680	289.361867	771.891918	-443.032895	318.348123	658.451990	-427.438410	254.475217	562.309839	-454.933470	233.301047	478.281302	-446.450811	210.960295	396.783085	-429.936940	290.625657	466.795647	-425.968709	178.070760	275.475064	-408.503827	224.569506	162.235720	-347.835902	130.642803	259.854535	-365.459569	381.855177	144.162036	-382.384251	273.679467	159.921529	-444.498603	-228.361299	890.914634	-253.519813	-21.221936	80.349717	-454.267365	-21.204943	80.525460	-53.934311	
